<?xml version="1.0" encoding="UTF-8"?>
<svg id="Camada_2" data-name="Camada 2" xmlns="http://www.w3.org/2000/svg" viewBox="0 0 844.14 200.42">
  <g id="Camada_1-2" data-name="Camada 1">
    <g>
      <path d="M370.85,78.18l2.06-.62c7.73-15.35,31.1-21.86,47.14-20.1,27,2.97,38.12,24.4,39.77,49.23,1.45,21.93,1.9,58.38.04,80.03-.19,2.18-.61,6.39-2.05,7.95-3.21,3.49-23.17,3-28.53,2.55s-9.57-1.54-10.4-7.61c-2.61-19.15,0-40.75-.26-59.93-.08-5.76-.05-18.96-1.02-23.77-3.55-17.48-33.36-17-36.54,2.01-3.77,22.54,1.81,54.84-.2,78.8-.33,3.93-.5,7.89-4.46,9.54-3.69,1.53-23.29,1.47-28.07.93-5.33-.6-8.87-2.94-9.52-8.48-2.89-24.39,3.73-57.21-.21-80.79-3.37-20.12-33.32-19.17-36.52,0-3.8,22.71,2.03,54.83-.2,78.8-.62,6.7-2.6,9.67-9.54,10.46-4.89.56-26.47.81-29.24-2.25-1.36-1.5-2.14-8.8-2.3-11.21-2.45-37.39,1.95-77.41,0-115.08-.83-11.68,15.43-10.03,23.53-9.45,11.17.8,15.84,1.22,16.01,13.99,16.2-23.92,57.78-20.76,70.52,5Z"/>
      <path d="M513.84,69.69l2,1.01c18.49-16.76,47.43-17.38,68.13-4.14,45.52,29.12,40.58,108.65-10.15,129.11-15.1,6.09-36.44,6.77-50.32-2.65-4.02-2.73-6.28-7.19-10.15-9.84.16,5.01,1.21,12.37-5.23,13.79-4.96,1.1-28.89.66-33.29-1.28-3.21-1.42-4.07-3.43-4.04-6.96l.28-177.81c.6-2.79,2.13-6.12,5.29-6.71,4.9-.91,22.49-.57,28.01-.07,4.69.43,9.46,1.92,9.46,7.54v58ZM539.59,95.45c-38.29,4.96-34.44,69.07,5.74,65.72,39.29-3.27,36.65-71.21-5.74-65.72Z"/>
      <path d="M39.57,6.44c.77.82,1.01,2.19,1.17,3.3.62,4.35.94,12.2,1.13,16.9.62,14.79-.55,29.75-.03,44.54,30.28-24.32,71.56-15.49,90.8,17.69,28.61,49.34-6.15,122.69-67.83,109.83-6.49-1.35-14.33-4.17-18.96-9.04-.71-.75-5.61-9.18-6.02-5.98.14,4.69,2.66,8.6-2.01,11.97-3.19,2.3-22.46,1.95-27.46,1.51-2.49-.22-9.53-1.21-10.35-3.65L.05,8.9c.84-3.37,3.02-4.35,6.27-4.73,6-.7,21.01-.68,27.04,0,1.55.17,5.26,1.26,6.22,2.28ZM67.61,95.47c-38.92,4.14-36.11,69.59,5.72,65.7,38.1-3.54,36.44-70.19-5.72-65.7Z"/>
      <path d="M661.84,142.19c4.91,20.37,26.84,29.48,45.68,21.18,10.47-4.61,14.56-13.26,27.64-7,22.35,10.69,10.9,22.05-4.01,31.63-60.28,38.71-130.59-19.43-105.33-86.33,25.12-66.53,119.92-55.97,130.86,14.18.73,4.67,3.87,26.34-3.34,26.34h-91.5ZM717.83,112.18c-5.74-17.55-25.49-26.95-42.34-17.84-4.76,2.58-11.87,10.94-12.67,16.35-.3,2.05.18,1.3,1.48,1.5h53.52Z"/>
      <path d="M190.6,194.95c-3.44,3.44-33.97,3.23-38.18.14-.92-.67-1.57-1.14-1.59-2.41l-.05-183.05c0-2.53,2.08-4.96,4.58-5.42,3.87-.72,28.07-.72,31.95,0,3.16.59,4.69,3.92,5.29,6.71l.28,175.81c-.16,1.94-1.06,7.01-2.28,8.22Z"/>
      <path d="M802.59,61.44l2.74,10.74c4.32-5.22,7.67-10.19,14.23-12.77,5.82-2.28,20.55-4.95,23.52,2.02,1.33,3.12,1.3,29.69.52,34.01-1.69,9.38-8.41,5.97-15.13,6.87-16.61,2.21-22.4,8.45-23.67,25.33-1.47,19.7,2.55,44.24.09,63.09-.35,2.68-1.32,4.07-3.82,5.18-4.02,1.78-24.82,1.98-29.5,1.04-3.46-.7-6.88-3.42-6.75-7.25l.23-124.8c1.99-7.04,7.68-4.63,12.28-4.93,8.46-.55,17.14-2.13,25.26,1.47Z"/>
      <path d="M246.6,194.95c-3.26,3.24-32.75,3.23-36.71.68-1.51-.98-2.36-2.46-2.84-4.16l-.27-125.84c.06-2.96,1.98-4.46,4.58-5.42,5.6-2.06,25.5-1.17,31.95,0,1.97.35,3.47,1.93,4.31,3.69l-1.03,131.05Z"/>
      <path d="M222.57.43c26.32-4.47,38.82,27.47,17.6,41.6-22.17,14.76-47.04-11.55-30.75-32.75,3.13-4.07,7.96-7.97,13.15-8.85Z"/>
    </g>
  </g>
</svg>