<?xml version="1.0" encoding="UTF-8"?>
<svg id="Camada_2" data-name="Camada 2" xmlns="http://www.w3.org/2000/svg" viewBox="0 0 255.46 66.63">
  <g id="Camada_1-2" data-name="Camada 1">
    <g id="uuid-85397258-1558-4baf-b150-8196e2ecf041" data-name="Camada 1-2">
      <g>
        <path d="M150.14,28.41l.46-.14c1.72-3.42,6.92-4.86,10.49-4.47,6.01.66,8.48,5.43,8.85,10.96.32,4.88.42,12.99,0,17.81-.04.49-.14,1.42-.46,1.77-.71.78-5.16.67-6.35.57s-2.13-.34-2.31-1.69c-.58-4.26,0-9.07-.06-13.34-.02-1.28-.01-4.22-.23-5.29-.79-3.89-7.42-3.78-8.13.45-.84,5.02.4,12.2-.04,17.54-.07.87-.11,1.76-.99,2.12-.82.34-5.18.33-6.25.21-1.19-.13-1.97-.65-2.12-1.89-.64-5.43.83-12.73-.05-17.98-.75-4.48-7.41-4.27-8.13,0-.85,5.05.45,12.2-.04,17.54-.14,1.49-.58,2.15-2.12,2.33-1.09.12-5.89.18-6.51-.5-.3-.33-.48-1.96-.51-2.49-.55-8.32.43-17.23,0-25.61-.18-2.6,3.43-2.23,5.24-2.1,2.49.18,3.52.27,3.56,3.11,3.6-5.32,12.86-4.62,15.69,1.11h0Z"/>
        <path d="M181.96,26.52l.45.22c4.11-3.73,10.55-3.87,15.16-.92,10.13,6.48,9.03,24.18-2.26,28.73-3.36,1.36-8.11,1.51-11.2-.59-.89-.61-1.4-1.6-2.26-2.19.04,1.11.27,2.75-1.16,3.07-1.1.24-6.43.15-7.41-.28-.71-.32-.91-.76-.9-1.55l.06-39.57c.13-.62.47-1.36,1.18-1.49,1.09-.2,5-.13,6.23-.02,1.04.1,2.11.43,2.11,1.68v12.91h0ZM187.69,32.26c-8.52,1.1-7.66,15.37,1.28,14.62,8.74-.73,8.16-15.85-1.28-14.62Z"/>
        <path d="M76.42,12.45c.17.18.22.49.26.73.14.97.21,2.71.25,3.76.14,3.29-.12,6.62,0,9.91,6.74-5.41,15.92-3.45,20.21,3.94,6.37,10.98-1.37,27.3-15.09,24.44-1.44-.3-3.19-.93-4.22-2.01-.16-.17-1.25-2.04-1.34-1.33.03,1.04.59,1.91-.45,2.66-.71.51-5,.43-6.11.34-.55-.05-2.12-.27-2.3-.81V13c.2-.75.68-.97,1.4-1.05,1.34-.16,4.68-.15,6.02,0,.34.04,1.17.28,1.38.51h0ZM82.66,32.26c-8.66.92-8.04,15.49,1.27,14.62,8.48-.79,8.11-15.62-1.27-14.62Z"/>
        <path d="M214.89,42.66c1.09,4.53,5.97,6.56,10.17,4.71,2.33-1.03,3.24-2.95,6.15-1.56,4.97,2.38,2.43,4.91-.89,7.04-13.41,8.61-29.06-4.32-23.44-19.21,5.59-14.8,26.69-12.45,29.12,3.16.16,1.04.86,5.86-.74,5.86h-20.36,0ZM227.35,35.98c-1.28-3.91-5.67-6-9.42-3.97-1.06.57-2.64,2.43-2.82,3.64-.07.46.04.29.33.33h11.91Z"/>
        <path d="M110.03,54.4c-.77.77-7.56.72-8.5.03-.2-.15-.35-.25-.35-.54V13.16c-.01-.56.45-1.1,1.01-1.21.86-.16,6.25-.16,7.11,0,.7.13,1.04.87,1.18,1.49l.06,39.12c-.04.43-.24,1.56-.51,1.83h0Z"/>
        <path d="M246.21,24.69l.61,2.39c.96-1.16,1.71-2.27,3.17-2.84,1.3-.51,4.57-1.1,5.23.45.3.69.29,6.61.12,7.57-.38,2.09-1.87,1.33-3.37,1.53-3.7.49-4.98,1.88-5.27,5.64-.33,4.38.57,9.84.02,14.04-.08.6-.29.91-.85,1.15-.89.4-5.52.44-6.56.23-.77-.16-1.53-.76-1.5-1.61l.05-27.77c.44-1.57,1.71-1.03,2.73-1.1,1.88-.12,3.81-.47,5.62.33h0Z"/>
        <path d="M122.49,54.4c-.73.72-7.29.72-8.17.15-.34-.22-.53-.55-.63-.93l-.06-28c.01-.66.44-.99,1.02-1.21,1.25-.46,5.67-.26,7.11,0,.44.08.77.43.96.82l-.23,29.16h0Z"/>
        <path d="M117.14,11.11c5.86-.99,8.64,6.11,3.92,9.26-4.93,3.28-10.47-2.57-6.84-7.29.7-.91,1.77-1.77,2.93-1.97Z"/>
      </g>
    </g>
    <g>
      <path d="M33.36,25.87L1.51,44.37c-.3.17-.76.26-.97.19S0,43.94,0,43.66L.06,7.09c0-2.51,1.84-4.73,3.51-5.83C5.79-.2,8.68-.45,10.98.83l21.98,12.3c2.19,1.23,3.41,3.84,3.48,6.16s-.79,5.26-3.07,6.58Z"/>
      <path d="M30.37,57.03l-19.9,9.05c-2.35,1.07-5.14.52-7.22-.92-1.76-1.22-3.2-3.43-3.21-5.94L0,52.01c0-.34.45-1,.79-1.19l31.32-17.99c1.17-.67,2.13-.7,3.26-.06l6.37,3.59c2.56,1.44,4.52,3.77,4.64,6.88s-1.54,6.02-4.24,7.47l-11.77,6.32Z"/>
    </g>
  </g>
</svg>